<svg width="55" height="55" viewBox="0 0 55 55" fill="none" xmlns="http://www.w3.org/2000/svg">
<path d="M53.7167 1.25842C53.3313 0.872154 52.8734 0.565706 52.3693 0.356617C51.8653 0.147527 51.3249 0.0399013 50.7792 0.0399013C50.2335 0.0399013 49.6932 0.147527 49.1891 0.356617C48.6851 0.565706 48.2272 0.872154 47.8417 1.25842L27.4668 21.5918L7.09175 1.21675C6.70599 0.830993 6.24803 0.524993 5.74402 0.316222C5.24 0.107452 4.6998 4.06462e-09 4.15425 0C3.60871 -4.06462e-09 3.0685 0.107452 2.56449 0.316222C2.06047 0.524993 1.60251 0.830993 1.21675 1.21675C0.830993 1.60251 0.524993 2.06047 0.316222 2.56449C0.107452 3.0685 -4.06462e-09 3.60871 0 4.15425C4.06462e-09 4.6998 0.107452 5.24 0.316222 5.74402C0.524993 6.24803 0.830993 6.70599 1.21675 7.09175L21.5918 27.4668L1.21675 47.8417C0.830993 48.2275 0.524993 48.6855 0.316222 49.1895C0.107452 49.6935 0 50.2337 0 50.7792C0 51.3248 0.107452 51.865 0.316222 52.369C0.524993 52.873 0.830993 53.331 1.21675 53.7167C1.60251 54.1025 2.06047 54.4085 2.56449 54.6173C3.0685 54.826 3.60871 54.9335 4.15425 54.9335C4.6998 54.9335 5.24 54.826 5.74402 54.6173C6.24803 54.4085 6.70599 54.1025 7.09175 53.7167L27.4668 33.3417L47.8417 53.7167C48.2275 54.1025 48.6855 54.4085 49.1895 54.6173C49.6935 54.826 50.2337 54.9335 50.7792 54.9335C51.3248 54.9335 51.865 54.826 52.369 54.6173C52.873 54.4085 53.331 54.1025 53.7167 53.7167C54.1025 53.331 54.4085 52.873 54.6173 52.369C54.826 51.865 54.9335 51.3248 54.9335 50.7792C54.9335 50.2337 54.826 49.6935 54.6173 49.1895C54.4085 48.6855 54.1025 48.2275 53.7167 47.8417L33.3417 27.4668L53.7167 7.09175C55.3001 5.50842 55.3001 2.84175 53.7167 1.25842Z" fill="white"/>
</svg>
